<?xml version="1.0" standalone="no"?>
<!DOCTYPE svg PUBLIC "-//W3C//DTD SVG 20010904//EN"
 "http://www.w3.org/TR/2001/REC-SVG-20010904/DTD/svg10.dtd">
<svg version="1.0" xmlns="http://www.w3.org/2000/svg"
 width="420.000000pt" height="420.000000pt" viewBox="0 0 420.000000 420.000000"
 preserveAspectRatio="xMidYMid meet">
<metadata>
Created by potrace 1.14, written by Peter Selinger 2001-2017
</metadata>
<g transform="translate(0.000000,420.000000) scale(0.100000,-0.100000)"
fill="#000000" stroke="none">
<path d="M2015 3671 c-23 -16 -46 -21 -98 -21 -59 0 -77 -5 -130 -34 -36 -20
-95 -41 -140 -50 -97 -20 -100 -21 -145 -81 -24 -32 -49 -53 -70 -59 -18 -5
-53 -27 -77 -48 -35 -31 -48 -52 -63 -101 -10 -35 -34 -83 -54 -108 -23 -31
-39 -66 -46 -104 -8 -39 -22 -68 -43 -93 -52 -58 -88 -147 -99 -242 -5 -47
-14 -105 -19 -130 -13 -59 -13 -156 -1 -277 17 -160 27 -599 16 -700 -8 -80
-7 -95 8 -117 16 -25 16 -30 0 -84 -10 -31 -30 -84 -46 -116 -22 -46 -28 -73
-28 -123 0 -62 2 -66 41 -106 40 -41 41 -43 34 -92 -18 -134 -18 -127 14 -171
51 -68 130 -92 194 -59 34 18 100 14 125 -7 43 -38 108 -53 167 -37 22 6 58
10 80 10 22 -1 57 6 78 15 37 17 38 17 99 -14 74 -39 132 -42 172 -11 27 21
27 21 49 1 39 -35 70 -45 137 -45 50 0 77 6 114 25 l49 25 44 -25 c40 -22 53
-24 126 -20 53 3 95 1 119 -8 74 -26 121 -27 150 -5 33 26 53 26 113 0 77 -34
200 -24 257 21 62 48 78 166 33 232 -14 20 -25 40 -25 44 0 4 15 24 34 45 20
21 38 54 42 74 12 63 -1 158 -30 214 l-26 52 32 62 33 62 1 185 c1 183 1 186
43 345 24 91 46 203 51 260 12 131 12 340 0 390 -6 22 -17 89 -26 150 -8 60
-24 127 -34 150 -10 22 -23 67 -30 100 -7 33 -19 72 -27 88 -20 39 -154 171
-189 186 -16 6 -38 27 -49 44 -14 22 -46 45 -103 73 -49 25 -98 58 -121 83
-64 70 -175 108 -341 118 -80 4 -113 10 -139 26 -26 15 -56 21 -130 24 -85 4
-100 2 -126 -16z m-115 -656 c160 -31 393 -56 570 -61 352 -10 464 -56 519
-216 35 -103 67 -379 57 -501 -4 -45 -13 -172 -21 -282 -7 -110 -18 -212 -23
-225 -5 -14 -13 -47 -17 -75 -9 -65 -61 -226 -92 -290 -58 -117 -214 -302
-323 -384 -206 -155 -340 -201 -526 -180 -164 18 -292 87 -443 237 -92 91
-153 175 -239 327 -62 111 -84 183 -118 400 -26 164 -26 170 -10 215 12 29 21
100 27 205 7 113 19 197 39 285 16 69 34 154 40 189 27 156 148 310 279 357
48 17 188 16 281 -1z m-729 -761 l38 -26 -4 -256 c-3 -142 -9 -260 -14 -265
-16 -16 -55 1 -73 31 -41 68 -76 332 -59 428 11 56 43 114 64 114 6 0 28 -12
48 -26z m2039 -156 c31 -33 27 -138 -9 -280 -47 -180 -88 -258 -136 -258 -38
0 -43 16 -27 88 8 37 28 114 45 171 31 104 41 120 116 184 22 18 28 37 11 37
-19 0 -82 -64 -106 -109 l-25 -46 5 76 c5 71 8 80 42 118 43 47 55 50 84 19z"/>
<path d="M1565 2590 c-40 -20 -108 -97 -99 -112 3 -4 26 6 51 22 57 37 111 39
228 10 44 -11 100 -20 125 -20 69 0 112 39 76 69 -14 12 -149 35 -271 46 -59
5 -76 3 -110 -15z"/>
<path d="M2565 2549 c-114 -10 -145 -20 -145 -48 0 -44 33 -47 272 -25 88 8
110 2 165 -49 l46 -42 -6 34 c-8 38 -46 94 -81 116 -30 20 -127 26 -251 14z"/>
<path d="M1582 2272 c-57 -21 -96 -51 -118 -94 -23 -45 -16 -51 18 -13 32 38
95 75 124 75 15 0 14 -4 -6 -25 -25 -27 -39 -118 -22 -143 5 -7 46 -21 91 -31
78 -17 82 -17 111 1 39 23 54 23 47 -2 -7 -29 0 -25 18 10 8 16 16 53 17 82
l1 52 24 -30 c13 -16 33 -45 43 -64 24 -45 25 -18 1 35 -62 136 -208 197 -349
147z m112 -74 c15 -24 -13 -53 -43 -43 -21 6 -29 43 -14 59 12 12 45 2 57 -16z"/>
<path d="M2505 2197 c-47 -23 -145 -114 -145 -136 0 -5 -3 -18 -6 -28 -4 -10
7 0 23 22 34 46 71 80 78 74 2 -3 0 -22 -6 -43 -7 -26 -7 -47 1 -72 19 -58 28
-61 116 -52 44 5 89 14 102 21 18 8 25 8 31 -2 12 -18 41 31 41 69 0 17 -7 47
-15 67 -8 20 -14 38 -12 39 10 10 97 -59 117 -92 28 -44 39 -30 15 19 -53 113
-224 170 -340 114z m63 -80 c-2 -17 -10 -22 -33 -22 -35 0 -47 31 -20 51 25
18 57 0 53 -29z"/>
<path d="M1970 1676 c0 -7 11 -30 25 -50 14 -20 25 -38 25 -40 0 -2 -30 3 -67
10 -190 36 -332 24 -381 -32 -34 -39 -25 -55 48 -81 65 -23 69 -26 159 -134
59 -69 220 -174 204 -133 -5 14 8 15 103 9 135 -8 146 -11 119 -32 -19 -14
-17 -15 20 -8 75 13 161 63 242 140 74 70 80 74 135 80 44 5 61 12 69 27 19
36 -4 66 -79 101 -65 31 -73 32 -220 35 l-154 4 26 27 c14 15 29 42 32 61 l7
35 -35 -39 c-30 -35 -40 -40 -90 -44 -69 -5 -120 11 -152 49 -27 32 -36 36
-36 15z m64 -251 c25 -4 46 -11 46 -16 0 -5 -14 -6 -32 -2 -24 5 -29 3 -23 -7
6 -10 0 -12 -31 -7 -73 12 -88 17 -98 28 -8 8 -5 9 11 5 13 -4 31 -3 40 3 10
6 23 9 29 7 6 -3 32 -8 58 -11z m246 -16 c0 -18 -164 -27 -175 -10 -3 6 16 12
42 14 72 6 133 4 133 -4z"/>
<path d="M2290 1125 c-25 -13 -41 -24 -37 -25 11 0 87 39 87 45 0 7 0 7 -50
-20z"/>
<path d="M2218 1093 c7 -3 16 -2 19 1 4 3 -2 6 -13 5 -11 0 -14 -3 -6 -6z"/>
<path d="M2178 1083 c7 -3 16 -2 19 1 4 3 -2 6 -13 5 -11 0 -14 -3 -6 -6z"/>
<path d="M1086 2191 c-4 -6 11 -30 33 -53 24 -24 43 -56 47 -75 3 -18 10 -33
14 -33 10 0 -6 64 -25 100 -19 36 -62 74 -69 61z"/>
</g>
</svg>
